<svg xmlns="http://www.w3.org/2000/svg" xmlns:xlink="http://www.w3.org/1999/xlink" width="500" height="500" viewBox="0 0 500 500">
  <defs>
    <clipPath id="clip-custom_1">
      <rect width="500" height="500"/>
    </clipPath>
  </defs>
  <g id="custom_1" data-name="custom – 1" clip-path="url(#clip-custom_1)">
    <g id="React-icon" transform="translate(-165.7 -42)">
      <path id="Path_1" data-name="Path 1" d="M655.7,291.779c0-31.8-39.821-61.932-100.872-80.62,14.089-62.226,7.827-111.733-19.764-127.583A42.9,42.9,0,0,0,513.148,78.1V99.916A22.656,22.656,0,0,1,524.3,102.46c13.306,7.631,19.079,36.69,14.578,74.064-1.076,9.2-2.837,18.883-4.99,28.765a474.151,474.151,0,0,0-62.128-10.664,477.26,477.26,0,0,0-40.7-48.92c31.9-29.645,61.835-45.887,82.185-45.887V78h0c-26.906,0-62.128,19.177-97.742,52.442-35.614-33.07-70.836-52.051-97.742-52.051V100.21c20.253,0,50.289,16.144,82.185,45.593a462.11,462.11,0,0,0-40.408,48.822,456.89,456.89,0,0,0-62.226,10.762c-2.25-9.784-3.914-19.274-5.088-28.373-4.6-37.375,1.076-66.433,14.285-74.162,2.935-1.761,6.751-2.544,11.252-2.544V78.489h0a43.625,43.625,0,0,0-22.112,5.479c-27.493,15.85-33.657,65.259-19.47,127.289C215.325,230.042,175.7,260.079,175.7,291.779c0,31.8,39.821,61.932,100.872,80.62-14.089,62.226-7.827,111.733,19.764,127.583,6.36,3.718,13.8,5.479,22.014,5.479,26.906,0,62.128-19.177,97.742-52.442,35.614,33.07,70.836,52.051,97.742,52.051a43.625,43.625,0,0,0,22.112-5.479c27.493-15.85,33.657-65.259,19.47-127.289C616.075,353.614,655.7,323.479,655.7,291.779ZM528.313,226.52c-3.62,12.621-8.121,25.634-13.208,38.647-4.011-7.827-8.219-15.654-12.817-23.481-4.5-7.827-9.295-15.459-14.089-22.894C502.092,220.846,515.5,223.389,528.313,226.52Zm-44.81,104.2c-7.631,13.208-15.459,25.732-23.579,37.375-14.578,1.272-29.352,1.957-44.223,1.957-14.774,0-29.548-.685-44.028-1.859Q359.491,350.727,348,331.013q-11.154-19.225-20.351-38.94c6.066-13.11,12.915-26.221,20.253-39.038,7.631-13.208,15.459-25.732,23.579-37.375,14.578-1.272,29.352-1.957,44.223-1.957,14.774,0,29.548.685,44.028,1.859q12.181,17.464,23.677,37.179,11.154,19.225,20.351,38.94C497.592,304.792,490.841,317.9,483.5,330.719ZM515.1,318c5.283,13.11,9.784,26.221,13.5,38.94-12.817,3.131-26.319,5.773-40.31,7.827,4.794-7.534,9.588-15.263,14.089-23.188C506.886,333.752,511.093,325.827,515.1,318ZM415.9,422.395a403.352,403.352,0,0,1-27.2-31.309c8.806.391,17.807.685,26.906.685,9.2,0,18.3-.2,27.2-.685A381.894,381.894,0,0,1,415.9,422.395ZM343.1,364.767c-13.893-2.055-27.3-4.6-40.114-7.729,3.62-12.621,8.121-25.634,13.208-38.647,4.011,7.827,8.219,15.654,12.817,23.481S338.309,357.331,343.1,364.767Zm72.3-203.6a403.354,403.354,0,0,1,27.2,31.309c-8.806-.391-17.807-.685-26.906-.685-9.2,0-18.3.2-27.2.685A381.9,381.9,0,0,1,415.407,161.163Zm-72.4,57.627c-4.794,7.534-9.588,15.263-14.089,23.188-4.5,7.827-8.708,15.654-12.719,23.481-5.283-13.11-9.784-26.221-13.5-38.94C315.513,223.487,329.014,220.846,343.005,218.791ZM254.461,341.286c-34.635-14.774-57.04-34.146-57.04-49.507s22.405-34.831,57.04-49.507c8.414-3.62,17.611-6.849,27.1-9.882a469.906,469.906,0,0,0,22.014,59.584,463.284,463.284,0,0,0-21.72,59.291C272.17,348.232,262.973,344.906,254.461,341.286ZM307.1,481.1c-13.306-7.631-19.079-36.69-14.578-74.064,1.076-9.2,2.837-18.883,4.99-28.765a474.152,474.152,0,0,0,62.128,10.664,477.272,477.272,0,0,0,40.7,48.92c-31.9,29.645-61.835,45.887-82.185,45.887A23.35,23.35,0,0,1,307.1,481.1Zm232.075-74.554c4.6,37.375-1.076,66.433-14.285,74.162-2.935,1.761-6.751,2.544-11.252,2.544-20.253,0-50.289-16.143-82.185-45.593a462.106,462.106,0,0,0,40.408-48.822,456.886,456.886,0,0,0,62.226-10.762A273.914,273.914,0,0,1,539.173,406.545Zm37.668-65.259c-8.414,3.62-17.611,6.849-27.1,9.882a469.907,469.907,0,0,0-22.014-59.584,463.292,463.292,0,0,0,21.72-59.291c9.686,3.033,18.883,6.36,27.493,9.98,34.635,14.774,57.04,34.146,57.04,49.507C633.882,307.14,611.477,326.61,576.842,341.286Z" transform="translate(0)" fill="#2166d8"/>
      <circle id="Ellipse_1" data-name="Ellipse 1" cx="45.7" cy="45.7" r="45.7" transform="translate(369.903 246.079)" fill="#e5166b"/>
    </g>
    <g id="Group_1" data-name="Group 1" transform="translate(101 27)">
      <g id="Background" transform="translate(95 196)">
        <rect id="Base" width="108" height="54" rx="10" fill="#9349f4"/>
      </g>
      <text id="RVG" transform="translate(99 241)" fill="#fff" font-size="45" font-family="HiraMaruPro-W4, Hiragino Maru Gothic Pro"><tspan x="0" y="0">RVG</tspan></text>
    </g>
  </g>
</svg>
